<svg enable-background="new 0 0 368 368" version="1.1" viewBox="0 0 368 368" xml:space="preserve" xmlns="http://www.w3.org/2000/svg">
<g fill="#007AFF">
	<path d="m104 240c4.424 0 8-3.584 8-8v-80c0-13.232-10.768-24-24-24h-32c-13.232 0-24 10.768-24 24v80c0 4.416 3.576 8 8 8s8-3.584 8-8v-24h48v24c0 4.416 3.576 8 8 8zm-56-48v-40c0-4.408 3.584-8 8-8h32c4.416 0 8 3.592 8 8v40h-48z"/>
	<path d="m168 232v-24h24c22.056 0 40-17.944 40-40s-17.944-40-40-40h-32c-4.424 0-8 3.584-8 8v96c0 4.416 3.576 8 8 8s8-3.584 8-8zm0-88h24c13.232 0 24 10.768 24 24s-10.768 24-24 24h-24v-48z"/>
	<path d="m264 224c-4.424 0-8 3.584-8 8s3.576 8 8 8h64c4.424 0 8-3.584 8-8s-3.576-8-8-8h-24v-80h24c4.424 0 8-3.584 8-8s-3.576-8-8-8h-64c-4.424 0-8 3.584-8 8s3.576 8 8 8h24v80h-24z"/>
	<path d="m344 48.001h-124.69l-29.656-29.656c-3.128-3.128-8.184-3.128-11.312 0l-29.656 29.656h-124.69c-13.232 0-24 10.768-24 24v24c0 4.416 3.576 8 8 8s8-3.584 8-8v-24c0-4.408 3.584-8 8-8h128c2.128 0 4.16-0.84 5.656-2.344l26.344-26.344 26.344 26.344c1.496 1.504 3.528 2.344 5.656 2.344h128c4.416 0 8 3.592 8 8v24c0 4.416 3.576 8 8 8s8-3.584 8-8v-24c0-13.232-10.768-24-24-24z"/>
	<path d="m360 264c-4.424 0-8 3.584-8 8v24c0 4.408-3.584 8-8 8h-128c-2.128 0-4.16 0.84-5.656 2.344l-26.344 26.344-26.344-26.344c-1.496-1.504-3.528-2.344-5.656-2.344h-128c-4.416 0-8-3.592-8-8v-24c0-4.416-3.576-8-8-8s-8 3.584-8 8v24c0 13.232 10.768 24 24 24h124.69l29.656 29.656c1.56 1.56 3.608 2.344 5.656 2.344s4.096-0.784 5.656-2.344l29.656-29.656h124.69c13.232 0 24-10.768 24-24v-24c0-4.416-3.576-8-8-8z"/>
</g>
</svg>